<?xml version="1.0" encoding="us-ascii" standalone="no"?><svg xmlns="http://www.w3.org/2000/svg" xmlns:xlink="http://www.w3.org/1999/xlink" contentStyleType="text/css" height="421px" preserveAspectRatio="none" style="width:536px;height:421px;background:#FFFFFF;" version="1.1" viewBox="0 0 536 421" width="536px" zoomAndPan="magnify"><defs/><g><text fill="#000000" font-family="sans-serif" font-size="14" font-weight="bold" lengthAdjust="spacing" textLength="442" x="40" y="24.5332">Simplified class diagram of the contact list management system</text><!--entity text1--><g id="elem_text1"><ellipse cx="401" cy="52.6094" fill="#F1F1F1" rx="8" ry="8" style="stroke:#181818;stroke-width:0.5;"/><path d="M401,60.6094 L401,87.6094 M388,68.6094 L414,68.6094 M401,87.6094 L388,102.6094 M401,87.6094 L414,102.6094 " fill="none" style="stroke:#181818;stroke-width:0.5;"/><text fill="#000000" font-family="sans-serif" font-size="14" lengthAdjust="spacing" textLength="73" x="364.5" y="118.6426">addContact</text></g><!--entity text2--><g id="elem_text2"><ellipse cx="283" cy="52.6094" fill="#F1F1F1" rx="8" ry="8" style="stroke:#181818;stroke-width:0.5;"/><path d="M283,60.6094 L283,87.6094 M270,68.6094 L296,68.6094 M283,87.6094 L270,102.6094 M283,87.6094 L296,102.6094 " fill="none" style="stroke:#181818;stroke-width:0.5;"/><text fill="#000000" font-family="sans-serif" font-size="14" lengthAdjust="spacing" textLength="93" x="236.5" y="118.6426">updateContact</text></g><!--entity text3--><g id="elem_text3"><ellipse cx="157" cy="52.6094" fill="#F1F1F1" rx="8" ry="8" style="stroke:#181818;stroke-width:0.5;"/><path d="M157,60.6094 L157,87.6094 M144,68.6094 L170,68.6094 M157,87.6094 L144,102.6094 M157,87.6094 L170,102.6094 " fill="none" style="stroke:#181818;stroke-width:0.5;"/><text fill="#000000" font-family="sans-serif" font-size="14" lengthAdjust="spacing" textLength="88" x="113" y="118.6426">deleteContact</text></g><!--entity text4--><g id="elem_text4"><ellipse cx="42" cy="52.6094" fill="#F1F1F1" rx="8" ry="8" style="stroke:#181818;stroke-width:0.5;"/><path d="M42,60.6094 L42,87.6094 M29,68.6094 L55,68.6094 M42,87.6094 L29,102.6094 M42,87.6094 L55,102.6094 " fill="none" style="stroke:#181818;stroke-width:0.5;"/><text fill="#000000" font-family="sans-serif" font-size="14" lengthAdjust="spacing" textLength="72" x="6" y="118.6426">findContact</text></g><!--entity CM--><g id="elem_CM"><rect fill="#F1F1F1" height="37.6094" rx="2.5" ry="2.5" style="stroke:#181818;stroke-width:0.5;" width="372" x="34" y="182.1094"/><text fill="#000000" font-family="sans-serif" font-size="14" lengthAdjust="spacing" textLength="105" x="172" y="206.6426">ContactManager</text></g><!--entity CDAOF--><g id="elem_CDAOF"><rect fill="#F1F1F1" height="37.6094" rx="2.5" ry="2.5" style="stroke:#181818;stroke-width:0.5;" width="147" x="58.5" y="280.1094"/><text fill="#000000" font-family="sans-serif" font-size="14" lengthAdjust="spacing" textLength="127" x="68.5" y="304.6426">ContactDAOFactory</text></g><g id="elem_CDAO"><ellipse cx="308.0842" cy="298.9262" fill="#F1F1F1" rx="67.0842" ry="15.8168" style="stroke:#181818;stroke-width:0.5;"/><text fill="#000000" font-family="sans-serif" font-size="14" lengthAdjust="spacing" textLength="79" x="265.5842" y="303.4428">ContactDAO</text></g><!--entity CSDAO--><g id="elem_CSDAO"><rect fill="#F1F1F1" height="37.6094" rx="2.5" ry="2.5" style="stroke:#181818;stroke-width:0.5;" width="141" x="70.5" y="378.1094"/><text fill="#000000" font-family="sans-serif" font-size="14" lengthAdjust="spacing" textLength="121" x="80.5" y="402.6426">ContactSimpleDAO</text></g><!--entity CFDAO--><g id="elem_CFDAO"><rect fill="#F1F1F1" height="37.6094" rx="2.5" ry="2.5" style="stroke:#181818;stroke-width:0.5;" width="122" x="247" y="378.1094"/><text fill="#000000" font-family="sans-serif" font-size="14" lengthAdjust="spacing" textLength="102" x="257" y="402.6426">ContactFileDAO</text></g><!--entity CXMLDAO--><g id="elem_CXMLDAO"><rect fill="#F1F1F1" height="37.6094" rx="2.5" ry="2.5" style="stroke:#181818;stroke-width:0.5;" width="126" x="404" y="378.1094"/><text fill="#000000" font-family="sans-serif" font-size="14" lengthAdjust="spacing" textLength="106" x="414" y="402.6426">ContactXMLDAO</text></g><!--reverse link text1 to CM--><g id="link_text1_CM"><path d="M359.3878,113.796 C353.6278,117.786 352.65,118.3894 347,122.1094 C314.58,143.4394 276.55,166.5594 250.61,182.0394 " fill="none" id="text1-backto-CM" style="stroke:#181818;stroke-width:1.0;"/><polygon fill="#181818" points="364.32,110.3794,354.6439,112.2161,360.2098,113.2265,359.1994,118.7924,364.32,110.3794" style="stroke:#181818;stroke-width:1.0;"/></g><!--reverse link text2 to CM--><g id="link_text2_CM"><path d="M259.3365,127.682 C248.4365,147.752 238.47,166.1094 229.84,181.9894 " fill="none" id="text2-backto-CM" style="stroke:#181818;stroke-width:1.0;"/><polygon fill="#181818" points="262.2,122.4094,254.3896,128.4092,259.8137,126.8032,261.4198,132.2273,262.2,122.4094" style="stroke:#181818;stroke-width:1.0;"/></g><!--reverse link text3 to CM--><g id="link_text3_CM"><path d="M180.6635,127.682 C191.5635,147.752 201.53,166.1094 210.16,181.9894 " fill="none" id="text3-backto-CM" style="stroke:#181818;stroke-width:1.0;"/><polygon fill="#181818" points="177.8,122.4094,178.5802,132.2273,180.1863,126.8032,185.6104,128.4092,177.8,122.4094" style="stroke:#181818;stroke-width:1.0;"/></g><!--reverse link text4 to CM--><g id="link_text4_CM"><path d="M83.1838,114.0467 C88.7438,117.9667 89.54,118.4594 95,122.1094 C126.88,143.4594 164.32,166.5694 189.85,182.0394 " fill="none" id="text4-backto-CM" style="stroke:#181818;stroke-width:1.0;"/><polygon fill="#181818" points="78.28,110.5894,83.3308,119.0445,82.3665,113.4705,87.9405,112.5062,78.28,110.5894" style="stroke:#181818;stroke-width:1.0;"/></g><!--link CM to CDAOF--><g id="link_CM_CDAOF"><path d="M203.45,220.1694 C187.81,237.2194 168.5327,258.245 152.8327,275.385 " fill="none" id="CM-to-CDAOF" style="stroke:#181818;stroke-width:1.0;"/><polygon fill="#181818" points="148.78,279.8094,157.8087,275.8745,152.1573,276.1224,151.9095,270.4709,148.78,279.8094" style="stroke:#181818;stroke-width:1.0;"/></g><!--link CM to CDAO--><g id="link_CM_CDAO"><path d="M236.55,220.1694 C253.28,238.4194 274.7647,261.8573 290.3547,278.8573 " fill="none" id="CM-to-CDAO" style="stroke:#181818;stroke-width:1.0;"/><polygon fill="#181818" points="294.41,283.2794,291.2751,273.9428,291.0306,279.5943,285.379,279.3498,294.41,283.2794" style="stroke:#181818;stroke-width:1.0;"/></g><!--link CDAOF to CDAO--><g id="link_CDAOF_CDAO"><path d="M205.56,299.1094 C217.3,299.1094 223.04,299.1094 234.78,299.1094 " fill="none" id="CDAOF-to-CDAO" style="stroke:#181818;stroke-width:1.0;stroke-dasharray:7.0,7.0;"/><polygon fill="#181818" points="240.78,299.1094,231.78,295.1094,235.78,299.1094,231.78,303.1094,240.78,299.1094" style="stroke:#181818;stroke-width:1.0;"/></g><!--reverse link CDAO to CSDAO--><g id="link_CDAO_CSDAO"><path d="M278.5182,317.0595 C249.1182,333.9595 204.74,359.4694 172.44,378.0394 " fill="none" id="CDAO-backto-CSDAO" style="stroke:#181818;stroke-width:1.0;"/><polygon fill="#181818" points="283.72,314.0694,273.9238,315.0867,279.3851,316.5612,277.9107,322.0225,283.72,314.0694" style="stroke:#181818;stroke-width:1.0;"/></g><!--reverse link CDAO to CFDAO--><g id="link_CDAO_CFDAO"><path d="M308,321.1094 C308,338.0894 308,359.7494 308,377.9394 " fill="none" id="CDAO-backto-CFDAO" style="stroke:#181818;stroke-width:1.0;"/><polygon fill="#181818" points="308,315.1094,304,324.1094,308,320.1094,312,324.1094,308,315.1094" style="stroke:#181818;stroke-width:1.0;"/></g><!--reverse link CDAO to CXMLDAO--><g id="link_CDAO_CXMLDAO"><path d="M336.5972,317.3793 C364.5872,334.2693 406.29,359.4594 436.92,377.9494 " fill="none" id="CDAO-backto-CXMLDAO" style="stroke:#181818;stroke-width:1.0;"/><polygon fill="#181818" points="331.46,314.2794,337.0991,322.354,335.741,316.8626,341.2324,315.5045,331.46,314.2794" style="stroke:#181818;stroke-width:1.0;"/></g><!--SRC=[ZPJDRjD04CVl-nI3XTGBhPga5H82fAee9o8EkI01XuszILRu2tjD4yI1f0SEzD8h4gru0rCrIjMIz1LstuZPNSVOIP1GfBLtzZSp_vbPHt3XC-Zo8FPvdpCFN9-cANYS3X8QGDG7CMJWHg6WhW2Vfm826j812rWe81sdWWM4EDJpZYtZ04r1i95e42UBFIhO-a6JE1xpsUP1YpXz7cu4EY0aOQwWuG2LEc-5_HLKnuX9LbRZTDmXP0VIzpoCgIx2vo4JuvX1b8XXjFqeZlontkXJbsAYnjuXV2xUc_lxSC8zCImj3RGC6HyCHMbw4z3HEusEz65DSw7rnT6hDZwYP6nbwZt9KkRIj0QLfrjYc4cn4kfkfzgymhItCwyxBql4lXDot87TBDvzNWomjctMjwtwzi0wUz59Y1PJ6gnRY3Nl9RflUuND6E6fvOg2wgRsfccbTmTe9g8m2teigSsrGqSTbgPuDRhy4uxhS1-FZtJlmP6NSYdlr9cSu_DAvcegPtflMe7ZIF2UUBWsj0-64zpbCSNRxiZlyaxU8BrGKqExFjUVWUMRc_nFELDVC0UkXiVW7yluBSr_o5Y6Cv7do2tbRKdsLbJp42dyZ6ZFt19vBdCKdXl8wwsWnxeNHZlssgfw0l87ilUwMBcGDsggpW0pv9XfZbKir2d86p30DVR0g9JNAn1pQ5ZECN1HPZNq1NeivI_qq7ACpoDGNxMruWjoYPPxGrsX3EmSe9OS2bzS3N6hJcjfR9ympQKHDKDPkPM5BnXWeRx9MIMFpFNqRNEhxXU5GfibNwlCIb6JlqEICuppu27-oJq3HqqAdrCrqPqo-oLsxZT6cwp5medyKmAcqHVDDXQ3Ly1gIzThjUJ_zLx3Vm00]--></g></svg>